<?xml version="1.0" encoding="utf-8"?>
<!-- Generator: Adobe Illustrator 24.3.0, SVG Export Plug-In . SVG Version: 6.00 Build 0)  -->
<svg version="1.1" id="Layer_1" xmlns="http://www.w3.org/2000/svg" xmlns:xlink="http://www.w3.org/1999/xlink" x="0px" y="0px"
	 viewBox="0 0 129 40" style="enable-background:new 0 0 129 40;" xml:space="preserve">
<style type="text/css">
	.st0{fill:#A7A6A6;}
	.st1{fill-rule:evenodd;clip-rule:evenodd;fill:#1B4071;}
	.st2{fill:#FFFFFF;}
	.st3{fill-rule:evenodd;clip-rule:evenodd;fill:#FFFFFF;}
	.st4{font-family:'BBCNassim';}
	.st5{font-size:6.1391px;}
</style>
<path class="st2" d="M49.42,23.66c0.05,1.11,0.77,1.44,1.9,1.44c0.71,0,1.64-0.24,1.64-1.12c0-1.98-5.25-0.75-5.25-4.31
	c0-1.98,1.72-2.84,3.42-2.84c1.88,0,3.5,0.87,3.57,2.75h-1.9c-0.11-0.81-0.93-1.1-1.67-1.1c-0.73,0-1.52,0.25-1.52,1.03
	c0,1.92,5.25,0.53,5.25,4.34c0,2.02-1.9,2.88-3.54,2.88c-2.04,0-3.73-0.97-3.79-3.07H49.42z"/>
<polygon class="st2" points="61.99,24.97 61.99,26.59 56.65,26.59 56.65,16.95 58.54,16.95 58.54,24.97 "/>
<path class="st2" d="M65.57,23.66c0.05,1.11,0.77,1.44,1.9,1.44c0.71,0,1.64-0.24,1.64-1.12c0-1.98-5.25-0.75-5.25-4.31
	c0-1.98,1.72-2.84,3.42-2.84c1.88,0,3.5,0.87,3.57,2.75h-1.9c-0.11-0.81-0.93-1.1-1.67-1.1s-1.52,0.25-1.52,1.03
	c0,1.92,5.25,0.53,5.25,4.34c0,2.02-1.9,2.88-3.54,2.88c-2.04,0-3.73-0.97-3.79-3.07H65.57z"/>
<path class="st2" d="M78.26,16.95l3.43,9.64h-2l-0.47-1.28h-3.97l-0.45,1.28h-2l3.43-9.64H78.26z M75.85,23.68h2.8l-1.4-3.93
	L75.85,23.68z"/>
<polygon class="st2" points="88.83,24.97 88.83,26.59 83.49,26.59 83.49,16.95 85.39,16.95 85.39,24.97 "/>
<path class="st2" d="M96.08,16.95l3.43,9.64h-2l-0.47-1.28h-3.97l-0.45,1.28h-2l3.43-9.64H96.08z M93.67,23.68h2.8l-1.4-3.93
	L93.67,23.68z"/>
<polygon class="st2" points="103.2,21.83 103.2,26.59 101.31,26.59 101.31,16.95 103.2,16.95 103.2,20.2 106.82,20.2 106.82,16.95 
	108.72,16.95 108.72,26.59 106.82,26.59 106.82,21.83 "/>
<path class="st3" d="M29.96,5.85l0-0.09L14.92,33.98h4.3l0-0.01h12.85l0,0.01h4.3l0-0.01h0l-0.25-0.46l-6.18-11.6l-2.15,4.03
	l2.32,4.36h-8.94l4.47-8.39l0,0l2.15-4.03l0,0l2.18-4.09l10.76,20.18h0.78h3.52h0.15V13.48h-3.67v13.91L29.98,5.76L29.96,5.85
	L29.96,5.85z M41.51,11.12V6.99h3.67v4.13H41.51L41.51,11.12z"/>
<text transform="matrix(1 0 0 1 47.8163 33.2226)" class="st2 st4 st5">Your Digital Growth Partner</text>
</svg>
