<?xml version="1.0" encoding="utf-8"?>
<!-- Generator: Adobe Illustrator 24.3.0, SVG Export Plug-In . SVG Version: 6.00 Build 0)  -->
<svg version="1.1" id="Layer_1" xmlns="http://www.w3.org/2000/svg" xmlns:xlink="http://www.w3.org/1999/xlink" x="0px" y="0px"
	 viewBox="0 0 129 40" style="enable-background:new 0 0 129 40;" xml:space="preserve">
<style type="text/css">
	.st0{fill:#A7A6A6;}
	.st1{fill-rule:evenodd;clip-rule:evenodd;fill:#1B4071;}
	.st2{font-family:'BBCNassim';}
	.st3{font-size:5.5701px;}
	.st4{fill:#FFFFFF;}
	.st5{fill-rule:evenodd;clip-rule:evenodd;fill:#FFFFFF;}
</style>
<path class="st0" d="M50.74,22.53c0.05,1.01,0.7,1.31,1.72,1.31c0.64,0,1.49-0.22,1.49-1.02c0-1.79-4.76-0.68-4.76-3.91
	c0-1.79,1.56-2.58,3.1-2.58c1.71,0,3.17,0.79,3.24,2.5h-1.72c-0.1-0.74-0.85-0.99-1.51-0.99c-0.67,0-1.38,0.23-1.38,0.93
	c0,1.74,4.76,0.48,4.76,3.94c0,1.83-1.72,2.62-3.21,2.62c-1.85,0-3.38-0.88-3.44-2.79H50.74z"/>
<polygon class="st0" points="62.14,23.72 62.14,25.2 57.3,25.2 57.3,16.45 59.02,16.45 59.02,23.72 "/>
<path class="st0" d="M65.39,22.53c0.05,1.01,0.7,1.31,1.72,1.31c0.64,0,1.49-0.22,1.49-1.02c0-1.79-4.76-0.68-4.76-3.91
	c0-1.79,1.56-2.58,3.1-2.58c1.71,0,3.17,0.79,3.24,2.5h-1.72c-0.1-0.74-0.85-0.99-1.51-0.99s-1.38,0.23-1.38,0.93
	c0,1.74,4.76,0.48,4.76,3.94c0,1.83-1.72,2.62-3.21,2.62c-1.85,0-3.38-0.88-3.44-2.79H65.39z"/>
<path class="st0" d="M76.91,16.45l3.11,8.75H78.2l-0.42-1.16h-3.6l-0.41,1.16h-1.82l3.11-8.75H76.91z M74.71,22.55h2.54l-1.27-3.56
	L74.71,22.55z"/>
<polygon class="st0" points="86.5,23.72 86.5,25.2 81.65,25.2 81.65,16.45 83.37,16.45 83.37,23.72 "/>
<path class="st0" d="M93.08,16.45l3.11,8.75h-1.82l-0.42-1.16h-3.6l-0.41,1.16h-1.82l3.11-8.75H93.08z M90.88,22.55h2.54l-1.27-3.56
	L90.88,22.55z"/>
<polygon class="st0" points="99.54,20.87 99.54,25.2 97.82,25.2 97.82,16.45 99.54,16.45 99.54,19.39 102.82,19.39 102.82,16.45 
	104.54,16.45 104.54,25.2 102.82,25.2 102.82,20.87 "/>
<path class="st1" d="M33.09,6.37l0-0.08L19.44,31.9h3.9l0-0.01H35l0,0.01h3.9l0-0.01h0l-0.23-0.42l-5.61-10.52l-1.95,3.66l2.11,3.96
	h-8.12l4.06-7.61l0,0l1.95-3.66l0,0l1.98-3.71l9.76,18.31h0.71h3.19h0.14V13.29h-3.33v12.62L33.1,6.29L33.09,6.37L33.09,6.37z
	 M43.56,11.15V7.41h3.33v3.75H43.56L43.56,11.15z"/>
<text transform="matrix(1 0 0 1 49.2824 31.2088)" class="st0 st2 st3">Your Digital Growth Partner</text>
</svg>
